<?xml version="1.0" encoding="UTF-8" standalone="no"?>
<svg
   version="1.1"
   width="841.88977pt"
   height="595.27557pt"
   id="svg11"
   viewBox="0 0 841.88977 595.27557"
   xmlns="http://www.w3.org/2000/svg"
   xmlns:svg="http://www.w3.org/2000/svg">
  <defs
     id="defs11" />
  <g
     id="Layer1000">
    <path
       d="m 801.1361,326.9324 c -5.5727,7.5381 -12.7611,16.6316 -22.4596,12.8262 -3.664,-1.4375 -6.1277,-4.8595 -5.9251,-8.8191 0.2935,-5.738 5.6188,-11.3648 10.0177,-14.4929 4.8404,-3.4419 14.6972,-11.1595 21.2872,-6.8103 1.1618,0.7669 2.4415,2.2301 2.5877,3.6871 l 2.071,25.3891 c 0.578,4.9069 6.3169,12.507 11.7996,9.8781 1.5341,-1.0093 3.5953,-0.5838 4.6046,0.9503 1.0093,1.5341 0.5837,3.5953 -0.9504,4.6046 -5.2828,2.4761 -10.6418,2.3205 -14.9707,-2.1432 -3.0807,-3.1768 -6.4042,-7.4139 -7.0035,-11.9866 z m -0.7589,-9.6777 -0.1596,-2.0355 -0.855,5e-4 c -7.246,1.7934 -14.437,6.6639 -18.6546,12.9272 -1.9056,2.8302 -1.614,6.1068 2.6511,5.9326 2.7903,-0.1139 5.3679,-2.6857 7.0589,-4.5944 l 9.4308,-11.8 c 0.1645,-0.1645 0.3414,-0.3076 0.5284,-0.4304 z"
       style="fill:#1b1918;fill-rule:evenodd;stroke:#1b1918;stroke-width:0.216;stroke-linecap:butt;stroke-linejoin:miter;stroke-dasharray:none"
       id="path1" />
    <path
       d="m 782.1517,302.1967 -37.8248,33.6253 -0.0754,9.3297 c -0.0306,1.3201 -0.1432,2.6281 -0.3262,3.926 10.7965,2.504 23.0761,-0.7079 33.4981,3.8169 6.8705,2.9832 11.1032,7.2323 12.3763,14.5177 l 0.582,4.5049 c 1.0124,1.304 0.9211,3.187 -0.2771,4.3852 -1.2983,1.2983 -3.4029,1.2983 -4.7012,0 -2.5341,-3.8059 -1.027,-8.9007 -3.7407,-12.5129 -4.7132,-6.2734 -14.011,-6.5146 -20.8997,-7.0106 -5.7376,-0.4135 -12.2513,-0.1857 -18.2593,-1.3652 -2.0177,6.6897 -5.4379,13.0819 -8.4494,19.1914 l -0.9202,2.0696 -0.0887,0.2983 c 0.6299,0.6051 1.0222,1.4548 1.0222,2.3967 0,1.836 -1.4885,3.3245 -3.3245,3.3245 -2.4929,-0.3839 -4.2172,-1.3772 -4.6099,-4.0856 -0.5789,-3.9902 3.0098,-8.6768 4.5873,-11.863 1.9242,-3.8874 4.293,-8.6777 5.5736,-13.2388 -0.5053,-0.2261 -1.004,-0.4703 -1.492,-0.7345 -5.6463,-3.0594 -3.8546,-10.3812 -1.0656,-14.7837 1.0421,-1.6453 2.152,-3.2415 3.3187,-4.7938 l -0.012,-11.3018 1.0066,-23.2859 c 0.2837,-1.8138 1.9841,-3.0549 3.7979,-2.7712 1.8138,0.2836 3.055,1.984 2.7713,3.7978 l -0.2017,25.0026 c 10.1653,-10.4853 22.6458,-19.0624 33.8833,-27.8598 1.4969,-1.0634 3.5722,-0.7124 4.6356,0.7845 1.0634,1.4969 0.7123,3.5723 -0.7845,4.6357 z"
       style="fill:#1b1918;fill-rule:evenodd;stroke:#1b1918;stroke-width:0.216;stroke-linecap:butt;stroke-linejoin:miter;stroke-dasharray:none"
       id="path2" />
    <path
       d="m 717.7733,299.1204 c -0.1423,6.5745 1.3967,16.0013 -3.1799,21.1418 0.3515,10.1396 0.3116,21.8217 -0.9872,30.5176 l -1.062,5.2677 c 0,1.836 -1.4885,3.3245 -3.3245,3.3245 -1.836,0 -3.3244,-1.4885 -3.3244,-3.3245 l 1.9175,-12.2708 0.1871,-20.327 c -2.6476,0.1848 -5.8037,-0.3954 -7.7553,1.1206 -2.6711,2.0749 -4.5789,5.7065 -5.1383,9.0177 l -1.8537,20.2118 c 0.3985,1.7921 -0.7319,3.5678 -2.524,3.9663 -1.7921,0.3985 -3.5678,-0.7319 -3.9663,-2.524 1.4038,-12.4529 0.2598,-21.5469 4.9725,-30.2902 0.7877,-1.461 1.7075,-3.2283 2.9717,-4.4583 l 0.0536,-0.2611 1.0771,-7.1897 0.0222,-5.0727 -0.7779,-3.2752 -1.8152,-0.2132 c -1.836,0 -3.3245,-1.4885 -3.3245,-3.3245 0,-1.836 1.4885,-3.3244 3.3245,-3.3244 3.5217,0.3302 7.8227,0.7451 8.2127,4.9538 l 0.9535,10.2841 c -0.0935,1.5027 -0.6582,1.6038 -0.7513,2.4451 l -0.2022,1.8231 c 2.1051,-0.1782 4.2097,-0.3559 6.3143,-0.5337 0.5931,-0.1844 1.1347,-0.445 1.7017,-0.8595 0.7447,-0.6697 0.8914,-1.0319 1.1649,-1.5478 l 0.1733,-0.8006 0.2912,-14.4769 c 0,-1.836 1.4885,-3.3244 3.3245,-3.3244 1.8359,0 3.3244,1.4884 3.3244,3.3244 z"
       style="fill:#1b1918;fill-rule:evenodd;stroke:#1b1918;stroke-width:0.216;stroke-linecap:butt;stroke-linejoin:miter;stroke-dasharray:none"
       id="path3" />
    <path
       d="m 651.8538,297.1554 -0.0187,0.0284 -0.3076,0.7491 -0.3041,1.328 1.1485,23.2225 6.594,0.9419 1.2291,0.176 0.5896,0.1751 0.2504,0.0718 1.5169,0.1024 1.0314,0.0802 1.8147,-0.348 0.2128,-3.6471 c 0.2354,-4.4938 -1.383,-8.9898 -1.2877,-13.5106 l 0.7855,-4.7819 c 0.7761,-1.664 2.7544,-2.3834 4.4184,-1.6073 1.664,0.7762 2.3834,2.7545 1.6073,4.4185 -0.4579,3.8054 0.7012,7.3576 0.7735,11.152 l -1.9597,30.3775 -0.7642,25.0288 c 0.2195,1.8226 -1.0802,3.4787 -2.9029,3.6981 -1.8227,0.2194 -3.4787,-1.0802 -3.6981,-2.9029 l 2.4153,-41.3793 -0.0589,0.007 c -1.3959,0.1871 -2.7451,0.094 -4.1423,-0.055 l -1.2199,-0.1454 -0.7517,-0.2056 -0.3453,-0.1046 0.4858,0.0487 -4.8568,-0.8147 -1.4096,-0.1551 0.2301,4.652 -0.9597,23.0425 c 0.8209,1.6423 0.1556,3.6391 -1.4867,4.4601 -1.6423,0.8209 -3.6392,0.1555 -4.4601,-1.4867 l 0.0559,-34.6502 c -0.5523,-9.6156 -4.5936,-22.0185 -0.004,-31.2601 0.863,-1.7376 2.3555,-2.406 4.0226,-3.1121 1.7912,-0.4029 3.57,0.7225 3.973,2.5137 0.3803,1.6897 -0.6011,3.3692 -2.2172,3.8918 z"
       style="fill:#1b1918;fill-rule:evenodd;stroke:#1b1918;stroke-width:0.216;stroke-linecap:butt;stroke-linejoin:miter;stroke-dasharray:none"
       id="path4" />
    <path
       d="m 531.2597,305.7388 -0.002,10e-4 -2.4074,1.5213 -1.976,1.8036 -1.9468,2.5097 -2.0311,3.3693 -2.1861,7.2189 -1.2549,6.1201 0.0882,2.8386 c 0.1215,4.8174 3.6348,8.9353 8.1401,10.5182 l 1.7105,0.5071 3.9583,0.2877 4.7872,-0.4012 5.2159,-2.3573 3.8205,-2.7783 2.496,-2.9481 c 1.2947,-1.8852 1.9494,-4.1552 2.3373,-6.4092 l 0.2668,-3.4507 -0.105,-3.5009 -0.2616,-3.2575 -0.7633,-3.7921 -0.6445,-2.602 -0.996,-2.2225 c -0.7548,-1.3741 -2.2637,-4.1808 -4.2322,-4.6542 -4.4353,-1.0665 -9.7549,-0.2562 -13.8497,1.5837 l -0.002,9e-4 -0.0146,0.009 -0.0598,0.0355 -0.0138,0.008 -0.0607,0.0337 z m -3.7898,-5.4074 c 0.1454,-0.1294 0.3054,-0.2491 0.4774,-0.3546 l 0.0811,-0.0363 0.0815,-0.0572 c 0.2172,-0.117 0.4415,-0.2061 0.6694,-0.2709 5.9281,-2.5115 14.4813,-4.2841 20.3523,-1.1156 6.2761,3.3869 8.1396,11.2774 9.3275,17.6785 2.1778,11.7349 -1.379,22.8399 -11.7779,29.2584 -9.9241,6.1254 -23.5385,4.812 -30.7645,-4.746 -2.4552,-3.2474 -3.6352,-8.4313 -3.1099,-12.4047 0.9317,-7.047 2.3843,-14.5367 6.6099,-20.4281 2.4122,-3.3626 4.8315,-5.258 8.0532,-7.5235 z"
       style="fill:#1b1918;fill-rule:evenodd;stroke:#1b1918;stroke-width:0.216;stroke-linecap:butt;stroke-linejoin:round;stroke-dasharray:none"
       id="path5" />
    <path
       d="m 415.4818,236.399 c 1.91,-4.5084 9.8208,-8.4978 14.21,-5.5829 1.7363,1.1529 2.266,3.9588 1.0687,5.6556 -0.6432,0.9109 -1.4499,1.6773 -2.5829,2.2894 -0.0527,0.2314 -0.2575,0.4854 -0.3816,0.7101 l -15.4024,27.8492 -22.3258,35.1941 c 3.9349,20.3878 2.9087,41.6514 6.6135,62.0623 l 15.0819,-0.5962 4.2917,-10.4752 -3.4982,-29.1302 c -1.0231,-8.1768 -2.9251,-17.2477 -8.0966,-23.8417 -1.4553,-1.1196 -1.7279,-3.207 -0.6082,-4.6622 1.1197,-1.4552 3.207,-1.7278 4.6622,-0.6081 5.4255,6.496 8.512,13.3319 9.4424,21.8412 l 2.4481,22.3958 c 0.2301,0.9548 0.4606,1.8076 0.6911,2.8652 6.863,-9.7105 24.3381,-32.054 36.5074,-48.081 l 13.605,-16.0841 c 1.4299,-1.1516 3.523,-0.9264 4.6746,0.5035 1.1516,1.43 0.9264,3.5231 -0.5035,4.6747 -10.8152,12.8408 -24.6724,30.0464 -30.7162,38.3199 -9.3302,11.9627 -17.8462,21.4839 -25.5483,41.9918 l 10.6099,-0.4193 6.7376,-0.4033 11.1817,-11.8192 9.3834,-9.1174 v 0 l 18.2699,-18.218 14.4064,-12.7823 1.1724,-1.1689 1.3905,-0.8839 0.766,-0.3094 c 2.7407,-0.984 5.7557,0.4965 6.6467,3.258 0.1804,0.5598 0.2633,1.2008 0.2633,1.7872 l -0.0488,45.4556 55.3988,-3.3174 c 12.0846,-11.8377 22.5575,-25.4068 36.3855,-35.2614 l -13.6267,-20.7327 c -3.4757,-4.3373 -11.57,-13.7344 -19.0244,-15.2433 -3.6099,-0.7305 -5.0327,2.6525 -6.4733,5.2549 -0.6849,1.7034 -2.621,2.5288 -4.3245,1.844 -1.7034,-0.6849 -2.5288,-2.621 -1.844,-4.3245 2.1379,-3.7553 4.0355,-7.914 8.6348,-9.0744 11.0287,-2.7828 22.8111,10.7034 28.0921,17.2313 l 11.3758,17.2907 2.9849,-31.5393 c 1.3799,-14.582 -1.5243,-35.6763 5.0466,-43.9015 1.2983,-1.2983 3.4029,-1.2983 4.7012,0 1.2983,1.2983 1.2983,3.4029 0,4.7012 -2.3329,3.3821 -2.9087,7.2788 -3.1073,11.3848 l 0.3515,17.9715 -2.1613,40.8771 -0.2265,2.1826 9.0084,-5.2344 18.2699,-16.9698 c 7.0979,-5.2336 15.1919,-8.7008 23.7583,-10.7957 10.7717,-2.6343 22.3647,-3.1125 29.3514,6.8245 3.5146,4.9986 2.1401,10.152 -2.8422,13.07 -1.6578,0.789 -3.6414,0.0846 -4.4304,-1.5732 -0.789,-1.6578 -0.0846,-3.6413 1.5732,-4.4304 1.1303,-0.6484 1.355,-1.1476 0.7025,-2.4516 -1.5837,-3.1658 -5.8541,-6.5133 -9.5917,-6.3737 -7.355,0.2748 -18.398,1.4907 -25.3323,4.6494 -7.0519,3.2123 -12.0696,9.6236 -17.9344,14.6883 l -19.3403,14.73 -3.8963,2.6547 19.8084,30.1076 c 7.8967,12.0018 16.8005,27.0345 26.4219,38.4082 14.4867,14.0957 29.8687,22.5198 48.9201,27.9382 19.0425,5.4158 34.343,11.1073 59.1953,4.5461 l 14.1728,-6.7553 c 1.469,-1.1015 3.5527,-0.804 4.6542,0.6649 1.1015,1.469 0.8041,3.5528 -0.6649,4.6543 l -16.5207,7.8235 c -28.3479,7.4517 -43.6767,3.2451 -63.877,-2.5013 -20.2198,-5.7518 -41.6808,-15.6427 -55.9165,-31.7282 -10.0545,-11.3603 -17.4352,-23.7153 -24.8457,-39.624 l -13.4193,-23.6125 -2.3639,40.6812 -0.5567,32.0442 c 0,1.836 -1.4885,3.3245 -3.3245,3.3245 -1.836,0 -3.3244,-1.4885 -3.3244,-3.3245 l 1.8643,-64.3238 0.8741,-12.2571 -5.8798,4.0062 c -7.4131,6.5878 -13.9787,14.441 -20.9038,21.8563 l 0.1689,-0.0101 c 1.836,0 3.3245,1.4884 3.3245,3.3244 0,1.836 -1.4885,3.3245 -3.3245,3.3245 l -7.1099,0.4259 c -6.1946,5.9038 -12.9348,11.0882 -20.964,14.5058 -12.617,5.3701 -27.4467,5.4419 -40.839,7.1883 -1.8204,0.2376 -3.4889,-1.0461 -3.7265,-2.8665 -0.2376,-1.8205 1.0461,-3.489 2.8666,-3.7265 16.4135,-2.1406 35.3873,-1.6937 49.0832,-12.5279 0.7863,-0.6219 1.5607,-1.2562 2.3275,-1.8994 l -117.7691,7.0518 c -4.6197,0.2163 -9.2894,0.3121 -13.9871,0.3684 l -10.1356,20.238 c 2.2673,3.566 4.9109,6.8404 7.7247,10.4006 1.2983,1.2983 1.2983,3.4029 0,4.7013 -1.2983,1.2983 -3.4029,1.2983 -4.7012,0 l -6.2846,-8.5913 -8.3634,13.6586 -6.0886,8.8058 c 11.3949,2.4495 18.6927,17.0394 18.7716,27.7322 0.074,9.9916 -4.5589,19.7327 -13.1706,25.1506 -14.226,8.9499 -32.2401,9.7655 -48.4551,7.477 -12.6905,-1.7913 -26.2259,-5.8019 -35.858,-14.7265 -15.6613,-14.5115 -16.2562,-39.4205 -7.8949,-57.7232 11.2858,-24.7038 39.6851,-38.5987 65.576,-41.6559 l 22.9002,-0.9051 c -2.9344,-17.7083 -3.4273,-47.2477 -4.9255,-54.0034 l -5.9721,8.625 -9.2628,13.3177 c -2.9029,4.2491 -4.9291,8.6773 -6.5341,13.5027 -0.3028,0.9109 -0.7469,1.7854 -0.8852,2.761 -0.002,2.2332 1.4424,3.992 -1.0816,5.8994 -0.2282,0.1729 -0.5168,0.2314 -0.7845,0.2992 l -0.3963,0.2092 -1.3293,0.3613 -0.7381,0.0443 c -2.1316,0.0155 -3.9618,-1.621 -4.558,-3.6024 -1.0452,-3.4729 0.0762,-6.9446 1.3404,-9.8209 0.9641,-1.9291 2.4397,-3.6449 3.6822,-5.4716 l 10.9476,-16.0979 13.6799,-19.136 c -2.2216,-8.8076 -5.7659,-17.2127 -9.7739,-25.3989 l -12.816,-22.4618 c -4.6272,-8.1103 -12.1156,-17.5465 -17.6905,-26.9374 -9.5545,-16.0957 -16.5868,-21.1254 -29.4565,-26.8381 -6.6258,-2.9415 -11.5319,0.7823 -15.1289,5.1728 -0.9446,1.5745 -2.9867,2.0847 -4.5612,1.1401 -1.5744,-0.9446 -2.0846,-2.9867 -1.14,-4.5611 4.9002,-6.5882 10.0571,-12.2491 19.0628,-11.2983 13.719,1.449 26.0536,16.0004 32.8989,26.2822 10.3568,15.5572 20.0863,31.5975 29.241,47.167 l 11.1759,21.1555 c 0.7403,1.7509 2.864,7.0669 3.4464,9.223 l 3.039,-5.1237 20.0553,-32.351 8.7513,-15.519 0.3773,-1.0093 c -0.1237,-0.0394 -0.2319,-0.0864 -0.3511,-0.1383 -0.6534,0.2917 -1.4176,0.3728 -2.1658,0.1866 -1.7819,-0.4432 -2.8665,-2.2473 -2.4228,-4.0292 z m -17.5864,134.0598 c 0.8648,3.7172 1.9197,7.4007 3.2274,11.0377 0.5274,1.4672 1.1148,2.8497 1.7548,4.172 l 6.2766,-15.32 c -3.7464,0.0275 -7.5035,0.0509 -11.2588,0.1103 z m 0.7336,21.5031 -0.2345,-0.3205 c -3.6099,-6.7141 -5.9512,-13.7681 -7.5337,-21.0203 -21.9746,0.6968 -43.8372,3.0376 -62.7937,15.6449 -18.6772,12.4219 -30.9888,36.3177 -23.5251,58.83 7.5864,22.8838 33.6027,29.4179 55.3393,29.1613 15.8191,-0.1867 36.8873,-4.5435 39.8793,-23.0071 1.4158,-8.7353 -2.4911,-19.1169 -10.3253,-23.667 -1.8803,-1.0917 -3.7912,-2.0842 -5.8807,-1.5993 l -9.6396,12.3174 c -1.9863,2.5385 -6.1583,8.2885 -10.0412,9.2282 -2.766,0.6689 -4.2877,-1.3608 -4.7052,-3.7974 0,-1.836 1.4884,-3.3245 3.3244,-3.3245 0.129,0 0.2575,0.008 0.3825,0.0226 l 1.5949,-1.5554 4.8785,-5.6879 c 2.9477,-3.0124 7.258,-9.5753 9.121,-11.9051 z m 94.6154,-32.4946 0.0461,-42.8664 -46.6825,45.6589 z"
       style="fill:#1b1918;fill-rule:evenodd;stroke:#1b1918;stroke-width:0.216;stroke-linecap:butt;stroke-linejoin:miter;stroke-dasharray:none"
       id="path6" />
  </g>
  <g
     id="Layer1001">
    <path
       d="M 59.5758,360.733 H 77.1606 V 112.5185 H 59.5758 c -0.8347,4.761 -15.7939,30.0311 -34.0255,37.099 h -5e-4 V 361.2536 H 43.1347 V 149.7563 c 5.6483,-4.7 10.8676,-10.7163 16.4411,-17.8809 z"
       style="fill:#1b1918;fill-rule:evenodd"
       id="path7" />
    <path
       d="m 211.1459,360.733 h 17.5849 V 242.7894 c 6.5397,8.2983 13.5496,14.7931 20.8749,18.851 v 99.6132 h 17.5849 V 259.5618 h -0.0337 c -1.5349,-0.5344 -8.8837,-4.4363 -14.0984,-8.9749 -7.0911,-5.6945 -15.4045,-13.5665 -18.1067,-18.7774 -2.7022,-5.211 -3.3229,-15.5711 -3.3229,-15.5711 0,0 -0.5807,-6.4746 2.7993,-14.1892 4.9208,-9.1591 12.4442,-20.0739 15.6855,-23.8421 3.3333,-3.7782 9.5544,-12.7771 15.5008,-18.0739 l 0.0647,-1.1026 v -46.5121 h -17.5848 v 54.8757 c 0.0202,0.0151 -18.1004,25.4219 -19.3636,27.7553 v -82.631 h -17.5849 z"
       style="fill:#1b1918;fill-rule:evenodd"
       id="path8" />
    <path
       d="m 184.6824,361.2536 h 9.1671 8.4178 V 259.5623 l 4e-4,-5e-4 c -1.5349,-0.5344 -8.8841,-4.5322 -14.0976,-9.2163 -6.6117,-5.2151 -15.4054,-13.3251 -18.1076,-18.536 -2.7022,-5.211 -3.3228,-15.5711 -3.3228,-15.5711 0,0 -0.5808,-6.4746 2.7993,-14.1892 4.9208,-9.1591 12.4441,-20.0739 15.6854,-23.8421 3.2686,-3.7051 10.5174,-12.4285 16.4045,-17.7602 l 0.4836,-0.2001 0.3255,-47.7283 h -7.0448 -10.5401 -18.761 -11.0043 -6.5806 v 248.7351 h 5.0369 12.548 z m 0,-99.6334 v 95.52 h -18.5903 v -111.591 c 5.8787,6.9712 12.1102,12.4744 18.5903,16.071 z m -18.5903,-69.8344 v -75.1539 h 18.761 v 50.1306 c -7.5654,7.8493 -13.8516,16.6135 -18.761,25.0233 z"
       style="fill:#1b1918;fill-rule:evenodd"
       id="path9" />
    <path
       d="M 119.1212,360.733 H 136.706 V 112.5185 h -17.5848 c -0.8347,4.761 -15.7939,30.0311 -34.0255,37.099 h -5e-4 v 211.6361 h 17.5849 l -0.2775,-151.6773 c 1.6425,-3.0188 4.4754,-4.7106 8.0948,-5.4767 2.6782,-0.5669 6.0587,-0.1956 8.6238,-0.1762 z M 102.6801,198.4193 v -48.663 c 5.6483,-4.7 10.8676,-10.7163 16.4411,-17.8809 v 66.5439 z"
       style="fill:#1b1918;fill-rule:evenodd"
       id="path10" />
    <path
       d="m 310.1305,360.733 h 17.5848 V 112.5185 h -17.5848 c -0.8348,4.761 -15.794,30.0311 -34.0256,37.099 h -4e-4 v 211.6361 h 17.5849 l -0.2776,-151.6773 c 1.6425,-3.0188 4.4755,-4.7106 8.0948,-5.4767 2.6783,-0.5669 6.0587,-0.1956 8.6239,-0.1762 z M 293.6894,198.4193 v -48.663 c 5.6483,-4.7 10.8676,-10.7163 16.4411,-17.8809 v 66.5439 z"
       style="fill:#1b1918;fill-rule:evenodd"
       id="path11" />
  </g>
</svg>
